<?xml version="1.0" encoding="UTF-8" standalone="no"?>
<!-- Created with Inkscape (http://www.inkscape.org/) -->

<svg
   xmlns:dc="http://purl.org/dc/elements/1.1/"
   xmlns:cc="http://creativecommons.org/ns#"
   xmlns:rdf="http://www.w3.org/1999/02/22-rdf-syntax-ns#"
   xmlns:svg="http://www.w3.org/2000/svg"
   xmlns="http://www.w3.org/2000/svg"
   xmlns:sodipodi="http://sodipodi.sourceforge.net/DTD/sodipodi-0.dtd"
   xmlns:inkscape="http://www.inkscape.org/namespaces/inkscape"
   id="svg2"
   version="1.1"
   inkscape:version="0.48.4 r9939"
   width="500"
   height="250"
   sodipodi:docname="demo_world.svg">
  <metadata
     id="metadata8">
    <rdf:RDF>
      <cc:Work
         rdf:about="">
        <dc:format>image/svg+xml</dc:format>
        <dc:type
           rdf:resource="http://purl.org/dc/dcmitype/StillImage" />
        <dc:title></dc:title>
      </cc:Work>
    </rdf:RDF>
  </metadata>
  <defs
     id="defs6" />
  <sodipodi:namedview
     pagecolor="#ffffff"
     bordercolor="#666666"
     borderopacity="1"
     objecttolerance="10"
     gridtolerance="10"
     guidetolerance="10"
     inkscape:pageopacity="0"
     inkscape:pageshadow="2"
     inkscape:window-width="1920"
     inkscape:window-height="1018"
     id="namedview4"
     showgrid="false"
     inkscape:zoom="1.4142136"
     inkscape:cx="385.92978"
     inkscape:cy="85.773917"
     inkscape:window-x="-8"
     inkscape:window-y="-8"
     inkscape:window-maximized="1"
     inkscape:current-layer="g3830" />
  <g
     id="world"
     transform="matrix(0.12531197,0,0,0.13051552,-118.73988,301.65596)"
     inkscape:label="#g3993">
    <g
       id="g3830"
       transform="translate(8.8212809e-6,-2.6641e-6)">
      <path
         style="fill:#1a9641;fill-opacity:1"
         d="m 2377.5693,-500.66897 c 40.0059,-51.75494 145.2801,21.70359 0,0 z m -1430.01516,76.86495 c -13.88052,-62.64602 290.19766,-3.16657 179.80826,-21.34536 73.0917,-1.84668 289.4188,-18.54251 246.6585,-3.27623 -70.6324,6.40353 -194.3051,-37.34452 -57.0061,-45.06751 -41.918,-16.88049 -127.6972,-34.57425 -20.2323,-32.65406 123.3313,-33.87257 257.3364,-26.55526 385.585,-34.08786 127.7025,30.87533 211.856,-43.59225 343.121,-6.76097 63.0298,-1.47678 127.6461,-4.10784 139.2362,-49.93106 47.3689,106.52431 18.9916,-113.03931 88.4489,10.10782 38.4433,105.2396 -226.076,30.36612 -224.358,96.08913 174.239,43.37252 355.4626,52.41373 532.5151,21.5354 54.1322,3.22259 90.9646,-20.1024 16.2406,-26.86345 132.7712,2.52583 234.7699,-103.72608 368.7117,-78.06364 125.5717,-18.92446 253.8021,-5.09276 379.2262,-26.79959 125.0158,2.10894 272.2213,-60.1055 387.4122,-3.6497 -105.6309,107.87744 349.7907,-106.58294 191.9773,-16.83149 192.9592,-20.40129 387.3514,-3.23967 580.5839,-7.61664 106.9983,29.02825 256.041,20.30489 339.2809,66.67703 -70.7782,17.46053 -128.0547,126.37417 -102.9448,93.35683 54.0656,57.43311 227.7364,-19.15245 215.7773,81.84424 -21.7245,26.46996 -92.5708,3.81817 -133.2264,11.35711 -1285.6051,0 -2571.2103,0 -3856.81546,0 0,-9.34 0,-18.68 0,-28.02 z"
         id="antarctica"
         inkscape:connector-curvature="0" />
      <path
         inkscape:label="#path3177"
         inkscape:connector-curvature="0"
         style="fill:#1a9641;fill-opacity:1"
         d="m 2145.0434,-817.02558 c -15.2905,-13.15235 -22.7035,-48.9506 -12.6465,-61.06905 10.6835,-12.8724 14.926,-41.65735 7.0975,-48.15425 -9.9865,-8.2884 -8.5405,-39.9724 3.06,-67.03535 5.5,-12.83097 10.08,-31.57997 10.178,-41.66457 0.1,-10.0845 3.438,-31.8354 7.422,-48.3354 3.984,-16.5 7.1865,-46.875 7.1165,-67.5 l -0.125,-37.5 -31.3045,-23.123 c -25.4255,-18.7807 -36.6545,-32.0885 -59.7945,-70.8651 -15.6695,-26.2581 -28.49,-49.4256 -28.49,-51.4833 0,-2.0577 3.772,-7.9091 8.382,-13.0031 6.4255,-7.1003 7.009,-10.6345 2.5,-15.1437 -9.1955,-9.1953 -7.237,-15.5015 12.8025,-41.2229 15.451,-19.8323 18.6955,-28.0268 18.75,-47.3571 0.07,-24.794 14.1885,-47.7907 36.7565,-59.8687 9.6915,-5.1868 11.483,-4.3115 16.1155,7.8728 l 5.212,13.7083 10.9905,-13.4798 c 10.7515,-13.1858 11.4275,-13.3216 30.991,-6.2266 11,3.9893 29.2125,7.352 40.4725,7.4727 14.4055,0.1545 24.777,3.9217 35,12.7134 7.99,6.8716 16.6325,12.4966 19.205,12.5 2.573,0 10.0605,5.0686 16.6395,11.2561 6.587,6.1956 23.527,13.4964 37.7045,16.25 22.655,4.4001 27.063,7.3611 36.7415,24.6809 10.9505,19.5955 10.956,19.7349 1.224,32.1066 -5.3755,6.8341 -8.022,14.131 -5.8805,16.2153 7.2565,7.0627 30.238,10.4116 33.643,4.9023 5.531,-8.9495 30.581,-6.0899 40.2505,4.5949 6.0825,6.7213 15.4,10 28.4175,10 11.6035,0 31.337,6.042 49.225,15.0719 28.08,14.1748 29.8575,16.1338 29.8575,32.9085 0,13.1467 -4.8335,23.7354 -18.3835,40.2711 -14.0325,17.1247 -19.265,28.9301 -22.1075,49.878 -4.078,30.051 -22.6675,71.729 -34.509,77.3695 -4.125,1.9649 -16.721,6.0195 -27.991,9.0101 -26.7965,7.1107 -48.7465,27.1391 -44.4795,40.5846 2.3515,7.4082 -2.227,15.447 -17.7665,31.1932 -11.514,11.6672 -26.563,28.5256 -33.442,37.4631 -10.3095,13.3938 -15.919,16.25 -31.9145,16.25 -21.172,0 -21.963,0.8804 -14.0595,15.64827 7.6555,14.30445 -1.123,22.58285 -28.263,26.6527 -17.4445,2.616 -23.6135,6.07105 -27.0695,15.1605 -2.549,6.70425 -9.435,12.47545 -15.995,13.40545 -8.6355,1.2242 -11.9295,5.3886 -13.1565,16.63305 -0.9005,8.25 -7.431,21.10615 -14.5125,28.5692 -10.9015,11.48935 -11.872,14.77795 -6.3305,21.4549 5.5715,6.7132 4.198,10.3067 -9.2375,24.1688 -8.6805,8.95575 -15.7825,18.9094 -15.7825,22.1192 0,3.20985 -4.366,8.17265 -9.702,11.02845 -7.6705,4.10505 -12.4465,2.8315 -22.809,-6.0819 z"
         id="south-america" />
      <path
         inkscape:label="#path3167"
         inkscape:connector-curvature="0"
         id="africa"
         style="fill:#1a9641;fill-opacity:1"
         d="m 3436.6459,-1123.2813 c -4.281,-9.3961 -4.237,-17.1504 0.18,-31.25 3.2295,-10.3141 5.3385,-24.1226 4.686,-30.6856 -0.7775,-7.8164 2.8875,-14.7155 10.6235,-20 6.4955,-4.437 18.0255,-14.2548 25.6215,-21.8173 16.13,-16.0582 24.7995,-17.5646 24.7995,-4.3094 0,14.6194 -24.717,96.705 -32.914,109.3094 -9.7665,15.0168 -25.8615,14.4084 -32.9945,-1.2471 z m -101.55,-592.8014 -5,-14.2187 -52.5,-2.3438 c -34.1395,-1.5217 -58.082,-5.1166 -68.2815,-10.3125 -17.5415,-8.9363 -38.133,-4.6051 -43.437,9.2188 -4.301,11.2073 -18.2255,9.871 -45.313,-4.5313 -12.93,-6.875 -28.763,-12.5 -35.156,-12.5 -14.545,0 -24.8465,-11.9243 -25.156,-29.2188 l -0.155,-13.2812 -50,0 c -37.321,0.062 -54.4005,2.3171 -67.0315,8.75 -11.381,5.7966 -22.7695,7.7369 -35,5.7812 -26.1525,-4.1821 -58.414,17.4903 -66.562,44.6876 -4.114,13.7286 -12.927,25.1327 -28.9065,37.6562 -12.6575,9.9201 -28.893,27.125 -35.9375,38.125 -11.5655,18.0577 -12.3855,22.9136 -9.0625,50 2.0245,16.5 1.7685,32.075 -0.625,34.6875 -6.5415,7.1393 -5.254,27.8746 1.875,30 20.215,6.0278 25.765,9.0966 20,11.25 -11.213,4.1884 -6.725,15.5769 18.2815,45.625 28.8665,34.6868 56.825,48.9234 79.062,40.4688 7.593,-2.8867 21.287,-3.7538 30.469,-2.0313 11.8785,2.2284 22.3455,0.141 36.406,-7.1875 25.4705,-13.2758 30.464,-12.9691 49.219,2.8125 11.9835,10.0819 19.074,12.4352 30.469,10.1563 13.243,-2.6488 15.666,-1.14 24.2185,15.625 8.3335,16.3344 8.779,20.0645 2.6565,28.4375 -11.3495,15.5207 -8.272,27.6657 12.3435,48.2812 17.1735,17.1734 19.924,23.5302 24.6875,55.625 4.5015,30.3265 4.273,38.0343 -2.031,47.6563 -4.1445,6.3246 -8.9215,22.2424 -10.469,35.3125 -2.4385,20.5873 -0.682,27.1311 12.8125,49.0625 9.304,15.1207 15.575,32.065 15.625,42.1875 0.105,25.4481 4.7365,37.8145 15.9375,42.8125 9.661,4.3108 23.7465,35.234 23.906,52.3437 0.145,15.7543 11.014,18.7836 51.719,14.2188 37.748,-4.2333 40.108,-5.3781 68.75,-30.9375 26.697,-23.824 29.459,-27.9737 27.5,-42.6563 -1.9815,-14.8522 -0.5095,-17.2917 17.969,-26.7187 l 20.312,-10.3125 -3.125,-23.9063 -3.125,-23.9062 27.6565,-21.4063 c 40.259,-31.0595 38.6905,-22.7046 22.0315,-110.4687 -6.2385,-32.8645 -6.3135,-32.8884 8.281,-52.1875 8.0445,-10.6374 32.3255,-36.3489 53.906,-57.0313 38.4625,-36.8609 63.2815,-74.4199 63.2815,-95.7812 0,-9.202 -1.979,-10.2004 -13.75,-7.3438 -51.3355,12.4585 -81.25,7.9819 -81.25,-12.0312 0,-4.7087 -6.75,-14.5242 -15,-21.875 -8.25,-7.3508 -15,-15.7191 -15,-18.5938 0,-2.8746 -5.625,-13.4762 -12.5,-23.5937 -6.875,-10.1175 -12.5,-21.6675 -12.5,-25.625 0,-3.9576 -3.0145,-10.8147 -6.5625,-15.1563 -3.548,-4.3415 -12.831,-21.5921 -20.625,-38.4375 l -14.0625,-30.625 10.625,-10.625 c 3.9935,-3.9936 6.233,-5.3012 8.125,-5.9375 z" />
      <path
         inkscape:label="#path3153"
         inkscape:connector-curvature="0"
         id="australia"
         style="fill:#1a9641;fill-opacity:1"
         d="m 4417.5545,-1370.7842 c 0,-2.75 2.25,-5 5,-5 2.75,0 5,2.25 5,5 0,2.75 -2.25,5 -5,5 -2.75,0 -5,-2.25 -5,-5 z m 160.0315,80.059 c -7.66,-14.3126 -27.509,-17.8619 -43.0275,-7.694 -16.6235,10.8923 -35.8415,3.8303 -48.15,-17.6935 -4.755,-8.3156 -15.4425,-17.4886 -23.75,-20.3845 -18.0855,-6.3046 -18.321,-7.5006 -3.854,-19.5692 13.636,-11.3754 28.521,-12.2271 41.5445,-2.3768 5.338,4.0375 15.6495,7.4124 22.9145,7.4999 14.835,0.1785 53.6355,28.785 54.033,39.8368 0.14,3.9477 5.15,12.3852 11.1295,18.75 9.0515,9.6346 9.4995,11.5722 2.676,11.5722 -4.5075,0 -10.59,-4.4734 -13.516,-9.9409 z m -63.7815,324.72947 c -6.1875,-2.45645 -11.25,-7.56505 -11.25,-11.35245 0,-3.7874 -4.5,-10.9586 -10,-15.93605 -5.5,-4.97745 -10,-11.94337 -10,-15.47987 0,-10.1612 -8.7105,-12.9101 -19.5195,-6.16 -8.5845,5.3613 -11.6195,4.3709 -22.4645,-7.3307 -9.479,-10.228 -17.2735,-13.5294 -31.9435,-13.5294 -24.1815,0 -76.955,9.9468 -83.3225,15.7047 -2.6125,2.3624 -12.1295,4.2953 -21.149,4.2953 -9.019,0 -25.4395,3.6175 -36.4895,8.0388 -26.9235,10.77257 -35.1115,6.849 -35.1115,-16.8247 0,-10.5048 -4.14,-27.2204 -9.2005,-37.1457 -11.0575,-21.6886 -12.737,-62.4625 -3.1835,-77.2779 4.03,-6.2489 18.9805,-14.4992 35.895,-19.8082 15.944,-5.0042 34.614,-14.7139 41.489,-21.577 41.134,-41.0626 55.4955,-51.9099 61.189,-46.2163 9.3805,9.3803 22.067,6.7177 30.6885,-6.441 9.482,-14.4712 39.0525,-24.0479 55.245,-17.8915 8.926,3.3935 10.8315,7.2837 9.157,18.6925 -1.9075,12.9974 0.455,15.8053 24.137,28.695 l 26.251,14.2877 9.1665,-11.3198 c 5.3765,-6.6399 9.166,-19.3592 9.166,-30.7658 0,-20.0064 7.8425,-26.2164 13.508,-10.6961 1.7565,4.8125 8.436,15.1101 14.843,22.8836 6.407,7.7735 11.649,18.0975 11.649,22.9422 0,4.8448 17.926,27.5977 39.8355,50.562 33.33,34.935 40.354,45.212 43.0115,62.9329 3.349,22.3321 -3.886,52.4173 -14.779,61.4577 -3.531,2.9307 -9.474,14.5809 -13.206,25.88942 -4.588,13.9022 -10.9275,22.1825 -19.574,25.5678 -17.539,6.86675 -70.306,9.25455 -84.038,3.80285 z m 375.67,23.00355 c -7.23,-18.8413 6.7405,-33.4724 22.3575,-23.41475 5.587,3.59825 5.2665,6.6704 -1.825,17.49375 -9.631,14.6983 -16.4135,16.65425 -20.5325,5.921 z m -323.414,29.04745 c -7.8735,-7.87355 -3.2,-17.49155 7.744,-15.93725 6.1875,0.87875 11.25,4.94195 11.25,9.02925 0,7.9438 -13.1685,12.73315 -18.994,6.908 z m 244.8275,34.82715 c -6.4705,-6.47045 -3.159,-11.4979 12.9165,-19.60905 8.9375,-4.50955 22.1905,-13.75185 29.4515,-20.5384 23.5915,-22.0503 21.323,-2.75425 -2.4735,21.0424 -21.282,21.28175 -32.3955,26.60405 -39.8945,19.10505 z" />
      <path
         inkscape:label="#path3099"
         inkscape:connector-curvature="0"
         id="asia"
         style="fill:#1a9641;fill-opacity:1"
         d="m 3578.4919,-2216.0968 c 1.203,-3.6093 5.1405,-7.5469 8.75,-8.75 3.75,-1.25 5.625,0.625 4.375,4.375 -1.203,3.6094 -5.1405,7.5469 -8.75,8.75 -3.75,1.25 -5.625,-0.625 -4.375,-4.375 z m -32.1875,33.3523 c -10.6705,-8.1001 -10.9555,-11.1235 -1.3945,-14.7924 7.46,-2.8628 22.6445,8.6101 22.6445,17.1098 0,6.6477 -11.0235,5.4456 -21.25,-2.3174 z m 1136.4261,207.289 c -7.2745,-13.5927 -6.439,-38.0559 1.5255,-44.6659 11.6985,-9.7089 64.22,-36.408 66.714,-33.9139 1.317,1.317 0.05,6.7915 -2.8345,12.1654 -2.876,5.374 -3.913,11.0869 -2.3045,12.6954 7.7245,7.7248 -5.589,29.1136 -28.2605,45.4016 -13.7715,9.8938 -26.08,17.9887 -27.3515,17.9887 -1.272,0 -4.642,-4.3521 -7.4885,-9.6713 z m -155.176,29.6712 c 0,-2.75 2.25,-5 5,-5 2.75,0 5,2.25 5,5 0,2.75 -2.25,5 -5,5 -2.75,0 -5,-2.25 -5,-5 z m -7.598,79.8412 c -1.942,-3.1419 -1.178,-8.0652 1.6975,-10.9407 6.7195,-6.7195 22.3855,-0.8585 19.652,7.3522 -2.783,8.3584 -16.932,10.7366 -21.3495,3.5885 z m -72.402,91.726 c 0,-2.3251 11.225,-11.5761 24.945,-20.5579 14.928,-9.7727 26.1885,-21.2855 28.042,-28.6698 2.885,-11.4938 17.013,-17.933 17.013,-7.754 0,12.4372 -20.366,49.8186 -28.377,52.086 -23.272,6.5865 -41.623,8.7449 -41.623,4.8957 z m -22.5,3.4328 c -1.6995,-2.75 -0.7075,-5 2.205,-5 2.912,0 5.295,2.25 5.295,5 0,2.75 -0.992,5 -2.205,5 -1.2125,0 -3.5955,-2.25 -5.295,-5 z m -141.338,200.3851 c 1.4105,-18.0432 10.6195,-25.984 15.4715,-13.3407 1.5755,4.1069 -1.562,12.6395 -6.9725,18.9613 l -9.8375,11.4944 z m -238.662,89.615 c -1.6995,-2.75 -0.84,-5 1.91,-5 2.75,0 6.3905,2.25 8.09,5 1.6995,2.75 0.84,5 -1.91,5 -2.75,0 -6.3905,-2.25 -8.09,-5 z m 282.5,9.8431 c 0,-5.4161 3.373,-9.8431 7.5,-9.8431 4.125,0 7.5,3.1343 7.5,6.965 0,3.8308 -3.375,8.2602 -7.5,9.8431 -5.1015,1.9576 -7.5,-0.27 -7.5,-6.965 z m -492.1291,1.8208 c -1.7595,-4.5849 -1.2295,-10.3052 1.177,-12.7119 5.591,-5.591 17.9365,8.7916 13.5875,15.829 -4.758,7.6986 -11.1305,6.3533 -14.7645,-3.1171 z m 235.2836,39.0592 c -7.745,-8.558 -6.8235,-25.7231 1.3805,-25.7231 7.262,0 15.465,12.4647 15.465,23.5 0,13.9131 -5.5975,14.6519 -16.8455,2.2231 z m 201.8455,70.1102 c 0,-12.732 5.336,-16.779 13.3515,-10.1266 5.1155,4.2456 5.384,7.292 1.098,12.4567 -7.9375,9.5637 -14.4495,8.5135 -14.4495,-2.3301 z m -76.5045,4.3374 c -22.3105,-4.3193 -26.6275,-7.9718 -31.172,-26.3741 -2.496,-10.1078 -1.297,-14.5043 4.5695,-16.7556 4.375,-1.6787 16.303,-10.6997 26.5075,-20.0466 10.2045,-9.3469 21.3375,-16.9944 24.7395,-16.9944 3.4025,0 7.6145,-4.5 9.36,-10 1.7455,-5.5 7.325,-10 12.399,-10 8.1935,0 9.0695,3.7747 7.832,33.75 -1.5385,37.265 -14.8525,71.5976 -27.407,70.6749 -4.3035,-0.316 -16.376,-2.2306 -26.8285,-4.2542 z m -108.193,10.1569 c -25.577,-27.705 -71.8025,-95.3276 -65.164,-95.3276 8.3285,0 66.4435,50.0881 75.706,65.2499 4.59,7.5124 10.7775,15.1623 13.75,16.9996 6.959,4.3008 7.0235,26.1603 0.09,30.4455 -2.9235,1.8068 -13.895,-6.0085 -24.3815,-17.3674 z m 49.6975,34.6723 c 0,-2.75 0.992,-5 2.205,-5 1.2125,0 3.5955,2.25 5.295,5 1.6995,2.75 0.7075,5 -2.205,5 -2.912,0 -5.295,-2.25 -5.295,-5 z m 30,5 c 0,-2.75 3.242,-5 7.205,-5 3.9625,0 8.5955,2.25 10.295,5 1.6995,2.75 -1.5425,5 -7.205,5 -5.662,0 -10.295,-2.25 -10.295,-5 z m -792.7711,-608.2672 c 0.25,0.1225 1.0825,-0.1675 1.25,0 1.32,1.3202 -0.18,7.1764 -3.281,12.9688 -7.221,13.4903 -4.071,18.2438 16.875,25.1562 16.773,5.5358 25.626,16.7743 20.156,25.625 -3.991,6.458 -60.778,5.5979 -73.281,-1.0937 -8.2305,-4.4048 -17.9665,-3.2052 -45.938,5.625 -19.514,6.1607 -38.281,12.0176 -41.7185,12.9687 -9.166,2.5363 -7.679,9.8342 5,24.5313 10.344,11.9905 14.571,13.1162 52.5,13.5937 l 41.25,0.4685 0,17.1875 c 0,9.4587 -3.952,23.9084 -8.75,32.0313 l -8.75,14.6875 5,14.2188 c 2.691,-0.9051 4.0415,0.4865 3.125,6.4062 -0.758,4.8939 32.757,57.4126 39.2185,61.4063 2.7825,1.7193 5.1565,6.5696 5.1565,10.7812 0,4.2116 9.8595,19.1906 22.0315,33.4375 16.6025,19.4349 22.534,30.8863 23.75,45.7813 1.2045,14.7646 4.051,20.3824 11.0935,21.7187 11.858,2.25 77.077,-22.961 90.9375,-35.1562 5.6775,-4.995 14.2095,-9.0625 18.906,-9.0625 10.9865,0 58.1435,-49.3112 55,-57.5 -1.31,-3.4162 -10.697,-10.0698 -20.937,-14.6875 -15.008,-6.7676 -23.0075,-7.4659 -40.938,-3.4375 -18.2815,4.1078 -23.8245,3.6094 -31.0935,-2.9688 -4.864,-4.4018 -8.75,-10.0149 -8.75,-12.5 0,-2.485 -7.0835,-13.277 -15.625,-23.9062 -8.542,-10.6292 -14.0165,-21.7279 -12.1875,-24.6875 5.859,-9.4802 22.507,-5.7123 34.0625,7.6562 15.795,18.2726 36.2665,27.8621 51.4065,24.0625 8.6385,-2.1684 15.8185,-0.436 22.3435,5.4688 7.1545,6.4748 21.586,9.3765 56.0935,11.25 25.534,1.3862 49.395,4.9896 53.125,7.9687 3.732,2.9792 11.6305,7.6986 17.5,10.625 5.8705,2.9265 11.522,9.8816 12.5,15.3125 2.704,15.0042 9.331,19.6949 17.813,12.6563 9.626,-7.9895 17.9685,-2.7381 17.9685,11.25 -0.05,17.7797 40.7535,128.4375 47.3435,128.4375 12.081,0 23.4535,-19.6731 27.188,-47.1875 2.0995,-15.4745 5.929,-29.8977 8.437,-32.0313 2.51,-2.1336 16.9065,-13.8094 32.0315,-25.9375 15.125,-12.128 32.2005,-27.0197 37.9685,-32.9687 5.769,-5.949 17.4565,-12.3216 26.094,-14.2188 8.6375,-1.8971 17.025,-5.5865 18.594,-8.125 5.2681,-8.5247 11.0926,-4.6419 17.6561,11.7188 3.586,8.9375 10.627,21.5666 15.625,28.125 4.998,6.5583 9.0625,17.1718 9.0625,23.5937 0,10.3417 2.1,11.5997 18.5935,10.625 17.212,-1.0171 19.06,0.232 24.375,16.4063 4.8155,14.6506 8.3315,17.7047 22.0315,19.0625 11.356,1.1254 21.986,7.6289 34.6875,21.25 20.176,21.6371 22.1845,22.5071 33.281,13.4375 34.206,-27.9557 35.599,-40.4434 7.0315,-66.875 -22.956,-21.2398 -25.252,-35.3063 -8.2815,-51.25 8.5825,-8.0619 17.026,-10.7722 31.25,-10 10.721,0.5819 34.64,-3.9573 53.125,-10.1563 28.057,-9.4087 37.0475,-15.4939 54.688,-36.5625 26.56,-31.7241 30.0885,-57.6327 11.0935,-82.6562 -10.1685,-13.3961 -11.3645,-17.8836 -6.7185,-26.5626 6.2615,-11.7015 6.6015,-11.1501 -8.9065,-19.2187 -16.657,-8.6663 -13.7475,-17.9101 8.9065,-28.125 15.3655,-6.9291 21.492,-7.5706 25.937,-3.125 3.2095,3.2088 11.272,5.7812 17.969,5.7812 15.5895,0 38.4375,23.7171 38.4375,40 0,14.223 11.0845,16.7736 18.9065,4.375 5.1775,-8.2088 3.5765,-14.7592 -7.6565,-30.7812 -5.2895,-7.5443 -4.6285,-10.3094 4.0625,-17.5 5.677,-4.6971 14.313,-15.0903 19.219,-22.9688 7.699,-12.3659 11.1505,-13.9112 25.625,-11.5625 13.247,2.1499 20.2495,-0.03 33.281,-10.625 32.274,-26.241 50.1875,-48.0844 56.406,-68.75 8.5165,-28.2978 2.395,-39.2695 -19.531,-35.1562 -12.0725,2.2648 -18.271,0.8243 -24.531,-6.0938 -9.8925,-10.9307 -7.672,-13.6203 34.531,-40 24.6465,-15.4056 27.3145,-15.9497 91.094,-17.6562 61.526,-1.6462 67.079,-2.5815 85,-15 19.789,-13.7146 40.0315,-16.7823 55.625,-8.4375 6.3,3.3723 11.813,2.6711 18.437,-2.3438 13.3615,-10.1151 22.0315,-9.1587 22.0315,2.5 0,7.8448 3.502,10.0713 16.25,10.4688 34.8635,1.0868 52.511,-1.5524 87.9685,-13.2813 20.2505,-6.6983 39.938,-12.1875 43.75,-12.1875 9.079,0 8.8765,-4.7806 -0.937,-15.625 -7.471,-8.2548 -6.988,-8.6932 7.5,-8.2812 l 15.4685,0.4685 c -0.235,-42.7942 0,-1.365 -0.155,-45.1563 l -45.781,-3.125 c -29.03,-2.0606 -47.894,-1.4293 -51.875,1.875 -4.3495,3.6094 -13.349,3.4497 -29.531,-0.625 -12.813,-3.226 -36.32,-4.7343 -52.344,-3.2812 -23.249,2.1081 -32.1665,0.815 -43.594,-6.7188 -10.591,-6.9829 -23.3075,-9.5062 -49.2185,-9.5312 -19.268,-0.02 -42.893,-2.4696 -52.5,-5.4688 -9.607,-2.9991 -26.5,-6.2243 -37.5,-7.1875 -11,-0.9632 -28.4175,-3.3154 -38.75,-5.1562 -12.8855,-2.2957 -22.3085,-0.9516 -30,4.0625 -7.3585,4.7969 -30.4795,8.121 -67.1875,9.8437 -50.8055,2.3843 -57.4595,1.7121 -72.5,-7.8125 -13.259,-8.3966 -26.031,-10.7651 -64.0625,-11.875 -26.125,-0.7624 -58.75,-2.1743 -72.5,-3.125 -13.75,-0.9507 -36.25,-2.3067 -50,-2.9687 l -25,-1.0938 21.4065,-9.8437 c 11.764,-5.406 20.052,-12.0752 18.437,-14.6875 -1.614,-2.6123 -17.293,-4.6875 -34.8435,-4.6875 -17.5505,0 -33.3005,-2.25 -35,-5 -2.3095,-3.7371 -12.0725,-5.3367 -23.75,-4.8438 -11.6775,0.493 -25.2605,3.0784 -35.4685,7.3438 -9.8735,4.125 -30.9745,7.48 -46.875,7.5 -41.635,0.055 -93.0731,9.1681 -99.5316,17.6562 -3.583,4.7082 -14.543,7.3438 -30.9375,7.3438 -26.363,0 -38.4585,7.968 -24.219,15.9375 4.511,2.5245 8.2815,7.7304 8.2815,11.7187 0,9.5523 -13.1885,9.4506 -16.875,-0.156 -3.3785,-8.8041 -35.758,-10.4116 -40.9375,-2.0312 -3.341,5.4058 -16.4355,4.3339 -33.4375,-2.8125 -7.0515,-2.9641 -8.75,-1.2565 -8.75,9.375 0,7.3458 3.464,14.5813 7.8125,16.25 11.627,4.4617 -15.896,31.7187 -32.031,31.7187 -11.8065,0 -11.975,-0.444 -3.75,-9.5312 9.5415,-10.5439 7.2785,-37.7551 -4.5315,-53.9063 -6.1935,-8.4704 -7.451,-8.4574 -24.5315,-0.3125 -19.423,9.2624 -21.2055,13.6517 -11.875,28.5938 9.266,14.8356 2.6525,16.6653 -35.937,10.1562 -19.513,-3.2911 -39.333,-4.4298 -44.063,-2.5 -4.7295,1.9299 -32.2185,4.4412 -61.0935,5.4688 -31.8285,1.1326 -61.0565,4.9384 -74.0625,9.8437 -11.799,4.4501 -26.6765,6.7748 -33.125,5.1563 -7.3335,-1.8406 -14.101,-0.1295 -17.969,4.5312 -3.4005,4.0984 -12.267,7.5 -19.8435,7.5 -7.5765,0 -16.5765,3.375 -20,7.5 -3.4235,4.125 -11.1995,7.5 -17.1875,7.5 -5.9885,0 -13.1905,2.4103 -16.094,5.3125 -8.768,8.7689 -31.5125,-0.4315 -39.531,-15.9375 l -7.5,-14.375 37.656,0 c 20.696,0 37.6565,-2.1324 37.6565,-4.6875 0,-2.555 -12.9375,-7.1207 -28.75,-10.1562 -15.8125,-3.0356 -38.1635,-7.854 -49.5315,-10.7813 -14.8075,-3.8134 -23.4355,-3.775 -30.781,0.156 -13.5235,7.2377 -15.9375,6.9175 -15.9375,-2.0312 0,-5.3468 -6.101,-7.7856 -21.25,-8.4375 -0.5775,-0.025 -0.8365,0.025 -1.4065,0 -0.972,3.1253 -1.276,6.565 -1.0935,10.3125 1.2495,7.9068 2.893,15.1249 4.8435,21.875 1.951,6.75 4.2345,13.0915 6.563,19.2187 4.656,12.2544 9.681,23.7526 13.906,36.7188 0.9885,2.997 0.93,5.1391 0.155,6.875 -0.7735,1.7359 -2.1675,3.0236 -3.75,4.2187 -1.582,1.1952 -3.4055,2.3752 -4.8435,3.75 -0.6355,0.6075 -0.777,1.5998 -1.25,2.3438 1.8605,0.3175 4.5245,0.1665 5.3125,0.9375 4.714,4.6117 1.333,9.3554 -6.094,12.6562 0.544,2.32 1.098,4.6471 2.344,6.7188 1.592,2.647 3.8305,4.9971 6.875,6.7187 3.0445,1.7217 7.0345,2.7558 11.875,2.9688 5.741,0.3065 12.2915,0.7518 18.4375,1.875 6.146,1.1232 11.86,2.8697 15.625,5.9375 2.2115,1.9247 3.7855,4.4618 4.8435,8.125 1.0585,3.6631 1.5755,8.6009 1.25,15.625 -0.16,1.9479 0.8065,3.2304 2.344,4.2187 1.5375,0.9884 3.6825,1.539 5.9375,2.0313 4.51,0.9845 9.4305,1.4999 10.9375,3.2812 3.661,4.818 6.4465,9.4325 8.75,14.8438 1.6915,3.2405 4.0955,6.105 6.875,8.5937 2.7795,2.4887 5.8985,4.5817 9.0625,6.7188 3.164,2.1371 6.373,4.2206 9.2185,6.4062 2.846,2.1856 5.364,4.5533 7.188,7.1875 1.721,2.7162 2.9975,5.4153 3.75,8.125 0.752,2.7097 0.93,5.4703 0.625,8.125 -0.305,2.6548 -1.049,5.2613 -2.5,7.8125 -1.4515,2.5512 -3.5645,4.9446 -6.25,7.3438 -0.49,0.3985 -0.6335,0.7047 -1.094,1.0937 z M 980.26764,-2116.4237 c -10.8825,-2.5493 -22.695,-3.5189 -26.25,-2.1547 -4.536,1.7407 -6.4635,-2.8094 -6.4635,-15.2601 0,-17.3863 0.325,-17.6718 16.25,-14.3037 8.9375,1.8902 23.2175,7.6641 31.73305,12.831 8.51551,5.1669 16.85601,8.0212 18.53451,6.343 1.678,-1.6783 6.7765,-1.6219 11.33,0.1255 6.716,2.5772 7.113,4.5813 2.1035,10.6176 -6.8605,8.2666 -17.849,8.6857 -47.23756,1.8014 z" />
      <path
         inkscape:label="#path3091"
         inkscape:connector-curvature="0"
         id="europe"
         style="fill:#1a9641;fill-opacity:1"
         d="m 3128.4104,-2259.1282 c 0.97,-5.0866 6.9215,-9.8921 13.39,-10.8121 9.0145,-1.2821 11.2495,0.4115 9.8975,7.5 -0.9695,5.0865 -6.921,9.8921 -13.3895,10.8121 -9.0145,1.2821 -11.2495,-0.4115 -9.898,-7.5 z m -405.4855,163.9576 c -21.4735,-6.0007 -17.1185,-14.5054 10.603,-20.7069 50.3625,-11.2664 74.727,3.5585 28.4395,17.3044 -14.4255,4.2838 -26.382,7.5645 -26.5705,7.2904 -0.19,-0.274 -5.8005,-2.0237 -12.472,-3.8879 z m 119.6295,119.2626 c 0,-8.3685 16.11,-19.8763 27.8255,-19.8763 4.74,0 1.8135,18.361 -3.8255,24 -9.723,9.7232 -24,7.2701 -24,-4.1237 z m 65.231,15.3723 c -6.2175,-3.933 -6.2815,-6.4434 -0.445,-17.3523 6.272,-11.7196 5.7465,-13.7543 -6.481,-25.0864 -14.2215,-13.18 -16.4705,-20.2645 -8.0795,-25.4504 2.875,-1.7768 18.3895,11.0279 34.477,28.455 21.403,23.1855 27.884,33.3622 24.1605,37.9355 -5.9155,7.2647 -33.046,8.1965 -43.634,1.4986 z m 466.998,46.4842 c 0.46,-0.389 0.6055,-0.6952 1.094,-1.0937 2.6855,-2.3992 4.7985,-4.7926 6.25,-7.3438 1.451,-2.5512 2.1945,-5.1577 2.5,-7.8125 0.305,-2.6547 0.125,-5.4153 -0.625,-8.125 -0.7525,-2.7097 -2.029,-5.4088 -3.75,-8.125 -1.824,-2.6342 -4.342,-5.0019 -7.188,-7.1875 -2.8455,-2.1856 -6.0545,-4.2691 -9.2185,-6.4062 -3.164,-2.1371 -6.283,-4.2301 -9.0625,-6.7188 -2.7795,-2.4887 -5.1835,-5.3532 -6.875,-8.5937 -2.3035,-5.4113 -5.089,-10.0258 -8.75,-14.8438 -1.507,-1.7813 -6.4275,-2.2967 -10.9375,-3.2812 -2.255,-0.492 -4.4,-1.0429 -5.9375,-2.0313 -1.5375,-0.9883 -2.5025,-2.2708 -2.344,-4.2187 0.325,-7.0241 -0.19,-11.9619 -1.25,-15.625 -1.058,-3.6632 -2.632,-6.2003 -4.8435,-8.125 -3.765,-3.0678 -9.479,-4.8143 -15.625,-5.9375 -6.146,-1.1232 -12.6965,-1.5684 -18.4375,-1.875 -4.8405,-0.213 -8.8305,-1.2471 -11.875,-2.9688 -3.0445,-1.7216 -5.283,-4.0717 -6.875,-6.7187 -1.246,-2.0717 -1.8,-4.3988 -2.344,-6.7188 -4.937,2.1942 -11.3275,3.8393 -19.531,4.0625 -16.679,0.454 -18.9775,1.9473 -19.0625,12.9688 -0.085,11.0129 -1.9335,12.368 -16.25,11.25 -13.198,-1.0307 -16.25,0.5399 -16.25,8.4375 0,13.1895 -7.35,16.9561 -42.5,21.5625 -37.8895,4.9654 -40.0925,4.9812 -69.0625,2.1875 -18.388,-1.7733 -29.478,0.4285 -47.5,9.375 -12.931,6.4193 -20.625,11.73 -17.1875,11.875 7.6645,0.323 8.433,20.3125 0.7815,20.3125 -3.008,0 -6.6015,-4.3025 -7.969,-9.5313 -2.584,-9.8825 -7.4765,-8.5699 -41.5625,10.4688 -7.7285,4.3166 -12.7675,6.385 -36.25,15.1562 l -13.75,5 11.875,14.0625 c 8.1045,9.6316 11.0595,18.2193 9.375,27.0313 -2.374,12.4178 -3.697,12.8125 -39.0625,12.8125 -20.142,0 -38.0285,2.1592 -39.6875,4.8437 -1.659,2.6845 -4.308,16.0863 -5.9375,29.8438 -2.56,21.6148 -1.746,25.5581 6.406,28.125 5.1895,1.6338 13.663,5.2243 18.75,7.9687 19.9765,10.7756 68.2815,-6.3614 68.2815,-24.2187 0,-3.8092 9.5625,-15.8634 21.25,-26.7188 16.7195,-15.5291 25.167,-19.7937 39.6875,-19.8437 10.15,-0.035 19.863,-2.25 21.5625,-5 5.458,-8.8312 36.5995,-5.7952 41.875,4.0625 4.214,7.8737 49.143,35.9375 57.5,35.9375 8.408,0 1.6495,-14.8484 -8.125,-17.8125 -15.5375,-4.7117 -33.75,-22.24 -33.75,-32.5 0,-11.9508 11.1085,-19.7866 23.4375,-16.5625 5.734,1.4995 11.902,0.3335 13.75,-2.6563 6.8855,-11.1401 12.411,-4.9944 6.719,7.5 -5.117,11.2293 -4.7045,13.758 3.75,18.75 5.373,3.1737 15.4685,6.8932 22.3435,8.2813 9.462,1.9103 12.813,6.1638 14.0625,17.5 1.5805,14.3446 18.0715,37.5 26.719,37.5 2.27,0 4.2185,-6.6885 4.2185,-14.8438 0,-14.0346 1.29,-14.9592 25.1565,-18.125 22.835,-3.0293 25.9005,-4.9879 32.5,-20.7812 4.0065,-9.591 7.3435,-21.7109 7.3435,-26.875 0,-6.5974 3.535,-9.375 12.0315,-9.375 6.6495,0 15.55,-1.3811 19.687,-2.9688 4.203,-1.6125 12.415,2.1024 18.594,8.2813 9.798,9.7979 11.49,10.0784 15.469,2.9687 4.2535,-7.6018 39.627,-19.8864 46.406,-16.5625 z m -115.3125,-147.3437 c 0.475,-0.744 0.6145,-1.7363 1.25,-2.3438 1.438,-1.3748 3.2615,-2.5548 4.8435,-3.75 1.5825,-1.1951 2.9765,-2.4828 3.75,-4.2187 0.774,-1.7359 0.8325,-3.878 -0.155,-6.875 -4.225,-12.9662 -9.25,-24.4644 -13.906,-36.7188 -2.3285,-6.1272 -4.612,-12.4687 -6.563,-19.2187 -1.9505,-6.7501 -3.594,-13.9682 -4.8435,-21.875 -0.18,-3.7475 0.12,-7.1872 1.0935,-10.3125 -29.5605,-1.1719 -48.52,0.6512 -54.531,5.4687 -2.9375,2.3542 -13.1875,5.9249 -22.8125,7.9688 -9.625,2.0439 -21.9195,6.8514 -27.3435,10.625 -5.4255,3.7736 -13.6535,6.875 -18.2815,6.875 -4.628,0 -17.541,7.4843 -28.5935,16.7187 -11.054,9.2345 -34.9135,23.3158 -53.125,31.25 -30.453,13.2659 -32.976,15.505 -30.1565,27.0313 1.6865,6.8938 6.266,15.7148 10.1565,19.6875 6.1625,6.294 9.361,6.1332 24.8435,-1.25 24.2155,-11.5476 26.283,-11.053 34.6875,9.0625 4.038,9.6636 10.888,19.0834 15.3125,20.7812 11.6625,4.4753 32.5,-6.5509 32.5,-17.1875 0,-5.0089 2.8125,-11.865 6.25,-15.3125 3.4375,-3.4475 6.25,-13.5537 6.25,-22.3437 0,-13.0659 2.985,-17.5153 16.4065,-24.2188 9.028,-4.5097 21.9245,-14.1988 28.75,-21.5625 7.878,-8.501 16.53,-12.727 23.5935,-11.7187 17.9145,2.5572 16.112,16.7276 -3.5935,28.9062 -35.267,21.7956 -13.908,46.6511 31.0935,36.25 10.6735,-2.4669 18.0735,-2.5805 23.125,-1.7187 z" />
      <path
         inkscape:connector-curvature="0"
         id="north-america"
         style="fill:#1a9641;fill-opacity:1"
         d="m 1921.6894,-2268.1654 c -28.0245,-6.1396 -33.0595,-10.1771 -20.813,-16.6895 8.9365,-4.7523 55.8255,-0.1365 66.6645,6.5623 18.128,11.2037 -11.285,17.7001 -45.8515,10.1272 z m 89.51,16.7447 c -10.481,-5.8921 -6.8855,-14.3636 6.096,-14.3636 5.0335,0 14.463,-4.4251 20.955,-9.8336 l 11.804,-9.8337 -20.955,-0.1665 c -23.304,-0.185 -33.3,-8.3387 -15.4995,-12.6428 18.892,-4.568 140.0175,-11.1008 160.43,-8.6526 10.4365,1.2517 18.2265,4.5237 17.3105,7.2712 -1.8045,5.4142 -31.076,15.87 -58.2675,20.8133 -9.34,1.698 -27.34,9.4435 -40,17.2123 -24.462,15.0109 -64.4505,19.9908 -81.8735,10.1959 z m -168.645,20.6364 c 0,-2.75 2.25,-5 5,-5 2.75,0 5,2.25 5,5 0,2.75 -2.25,5 -5,5 -2.75,0 -5,-2.25 -5,-5 z m -120,5.535 c 0,-5.8314 14.604,-11.3699 20.4515,-7.7561 8.812,5.4464 4.4045,12.2211 -7.9515,12.2211 -6.875,0 -12.5,-2.0092 -12.5,-4.465 z m 170,25.0482 c 0,-6.1357 17.6125,-10.149 24.866,-5.6662 4.2705,2.6396 3.5995,4.602 -2.3555,6.8872 -11.8215,4.5363 -22.5105,3.9565 -22.5105,-1.221 z m -57.769,8.9812 c -1.848,-2.9897 -1.0945,-7.7007 1.6735,-10.4689 7.3835,-7.3836 23.218,-2.8437 25.155,7.2119 1.2315,6.3959 -1.648,8.6926 -10.8975,8.6926 -6.9145,0 -14.0835,-2.446 -15.931,-5.4356 z m 842.769,10.4356 c 0,-2.75 2.117,-5 4.705,-5 2.5875,0 6.0955,2.25 7.795,5 1.6995,2.75 -0.415,5 -4.705,5 -4.287,0 -7.795,-2.25 -7.795,-5 z m -712.5,-2.9681 c -10,-7.6502 -10,-7.6502 0,-15.0701 9.0665,-6.7274 10.817,-6.4134 18.75,3.3631 4.8125,5.9306 8.75,12.7837 8.75,15.229 0,7.0052 -16.5015,4.8918 -27.5,-3.522 z m -286.574,19.6978 c -2.8335,-5.294 -10.3885,-12.0479 -16.789,-15.0086 -6.4,-2.9607 -17.679,-8.2366 -25.064,-11.7242 -11.119,-5.2511 -16.7055,-5.0411 -32.5,1.2214 -28.5165,11.3068 -53.211,-0.335 -34.1925,-16.119 8.001,-6.6401 20.3515,-5.8381 99.912,6.4881 27.386,4.2428 51.527,6.6423 53.6465,5.3322 2.12,-1.3101 8.856,0.2945 14.9685,3.5662 8.263,4.422 11.6035,4.4813 13.02,0.231 3.5065,-10.519 18.71,-5.8718 32.6085,9.9672 7.5695,8.6262 13.0995,16.3469 12.2895,17.1569 -0.81,0.8101 -26.5095,3.0571 -57.1105,4.9934 -51.777,3.2763 -55.9955,2.8527 -60.789,-6.1049 z m 317.716,65.2458 c -5.4455,-5.4459 1.1355,-11.9755 12.07,-11.9755 5.8735,0 9.248,2.623 8.0405,6.25 -2.3775,7.14 -15.0795,10.7563 -20.1105,5.7255 z m 173.858,11.6592 c -17.927,-6.0479 -42.5,-22.5946 -42.5,-28.618 0,-2.3663 3.5185,-7.8208 7.819,-12.1212 11.042,-11.0421 5.5885,-16.7742 -32.156,-33.7979 -31.523,-14.2177 -34.4435,-14.6536 -59.057,-8.8143 -22.8515,5.4212 -25.025,7.0118 -18.5,13.5368 12.6705,12.6706 6.338,23.2004 -14.385,23.92 -20.5475,0.7136 -24.5125,-6.7177 -8.8145,-16.5213 8.339,-5.2079 9.424,-9.7087 6.8555,-28.4458 -2.862,-20.8823 -2.2475,-22.4606 9.939,-25.5192 8.9405,-2.244 18.344,0.05 30.165,7.3543 14.538,8.9851 19.16,9.7101 30.107,4.7224 10.3825,-4.7307 16.637,-4.3622 31.7295,1.8698 10.3385,4.2691 28.369,10.3386 40.068,13.4876 12.388,3.3347 24.4935,10.6456 28.9895,17.5074 4.593,7.0096 14.8915,13.1272 25.4255,15.1034 22.13,4.1517 41.8145,12.9363 41.8145,18.6608 0,9.0937 -15.0705,9.5642 -29.692,0.9271 -12.3695,-7.3067 -16.3865,-7.7853 -21.509,-2.5624 -5.086,5.1855 -3.4105,8.7526 8.701,18.5242 12.4885,10.0758 13.3915,12.1061 5.3935,12.1268 -5.2835,0.015 -13.1585,3.1062 -17.4995,6.8724 -5.973,5.1812 -11.544,5.6161 -22.894,1.7871 z m 260.601,21.4719 c -14.3925,-2.7773 -25.684,-10.4725 -43.75,-29.8155 -27.4805,-29.423 -29.843,-38.4506 -11.851,-45.2911 24.9695,-9.4934 8.965,-45 -20.2835,-45 -13.9455,0 -17.2165,-1.9207 -17.2165,-10.1101 0,-6.5975 -8.1575,-15.2833 -23.479,-25 -21.914,-13.8975 -26.7295,-14.8899 -72.2515,-14.8899 -35.1535,0 -49.889,-1.8505 -52.771,-6.627 -2.199,-3.6449 -8.4985,-8.3864 -13.9985,-10.5367 -10,-3.9096 -10,-3.9096 0,-8.0215 5.5,-2.2616 17.2335,-4.2701 26.074,-4.4634 10.7145,-0.234 17.8585,-3.6858 21.426,-10.3514 3.463,-6.4705 10.469,-10 19.8505,-10 7.974,0 20.8325,-2.4986 28.574,-5.5525 8.2235,-3.244 48.3765,-5.6342 96.5755,-5.7489 60.795,-0.1445 85.0945,-1.9726 92.3625,-6.9475 14.3995,-9.8569 125.5715,-9.5449 131.139,0.368 2.819,5.0187 17.2755,7.8382 48.9985,9.5563 77.44,4.1942 95.7455,11.1073 75,28.3246 -4.125,3.4234 -7.5,8.1989 -7.5,10.6122 0,2.4133 3.375,4.3878 7.5,4.3878 4.607,0 7.5,4.6819 7.5,12.1371 0,18.0461 -21.791,32.8629 -48.331,32.8629 -16.571,0 -22.6495,2.1541 -24.691,8.75 -1.4895,4.8125 -4.923,12.8643 -7.6305,17.8928 -3.934,7.3059 -2.856,9.6834 5.365,11.8332 24.1015,6.3027 6.5495,16.4432 -28.8715,16.68 -15.852,0.106 -29.758,4.1084 -43.341,12.4744 -11,6.7751 -25.929,12.3299 -33.176,12.344 -28.9195,0.056 -62.5925,25.3903 -71.477,53.7756 -3.6925,11.7981 -7.9875,12.485 -39.746,6.3566 z m -439.351,549.493 c -4.8125,-2.803 -8.75,-8.3078 -8.75,-12.2327 0,-9.7459 -21.7725,-23.2915 -31.461,-19.5736 -4.329,1.6611 -17.5835,-2.5215 -29.4545,-9.2946 -11.8715,-6.773 -33.2575,-13.5835 -47.5245,-15.1344 -49.3905,-5.3687 -96.56,-31.5428 -96.56,-53.5803 0,-5.0095 -18.1925,-28.745 -40.4275,-52.7457 -22.2355,-24.0006 -40.6815,-49.7768 -44.8765,-55.3378 -8.9125,-12.8533 -17.703,-17.6535 -17.965,-6.7879 -1.118,9.1343 8.5745,30.8505 12.231,36.4933 16.7165,25.7976 4.1035,22.0309 -9.1815,8.0322 -1.3365,-1.4084 -18.968,-35.8168 -23.08,-45.3756 -5.5725,-12.953 -12.414,-21.9601 -23.5785,-26.625 -15.7485,-6.5801 -45.122,-37.754 -57.3445,-60.8589 -11.0305,-20.8511 -5.05,-91.5786 7.7435,-91.5786 14.057,0 3.7405,-16.5875 -14.1695,-22.7825 -19.977,-6.91 -64.3515,-48.1797 -64.3515,-59.8491 0,-4.0526 -2.037,-7.3684 -4.527,-7.3684 -2.4895,0 -13.9525,-7.875 -25.473,-17.5 -15.6085,-13.0405 -25.6385,-17.5 -39.3605,-17.5 -10.128,0 -23.5535,-3.5994 -29.834,-7.9988 -7.6435,-5.3534 -16.737,-7.0013 -27.4965,-4.9828 -8.842,1.6587 -29.0075,-0.352 -44.8125,-4.4689 -23.236,-6.0522 -30.752,-6.2947 -39.2695,-1.2671 -8.4075,4.9627 -10.9905,4.9561 -12.797,-0.03 -3.518,-9.7153 -18.883,-7.3733 -29.405,4.482 -11.455,12.9066 -46.8445,39.268 -52.716,39.268 -2.305,0 -3.655,-5.0625 -3,-11.25 1.0345,-9.77 -1.44,-11.4584 -18.809,-12.8342 -11.0002,-0.8712 -22.1377,-3.6837 -24.7502,-6.25 -2.6125,-2.5662 -8.451,-4.6658 -12.975,-4.6658 -4.524,0 -12.3455,-4.5532 -17.382,-10.1182 -11.1345,-12.3036 -5.7615,-19.4332 18.3635,-24.3674 10.5985,-2.1675 17.3355,-6.7996 18.472,-12.7 1.564,-8.1223 -0.5595,-8.9068 -16.923,-6.2514 -19.805,3.2139 -39.6645,-3.7006 -34.523,-12.0199 1.6845,-2.7253 12.435,-4.2999 23.89,-3.4991 27.2215,1.9029 31.155,-6.1468 6.3985,-13.0928 -10.686,-2.9982 -19.4125,-7.7012 -19.3925,-10.4512 0.06,-8.3355 62.0167,-26.8352 91.0207,-27.1783 14.9595,-0.177 39.7095,1.9308 55,4.684 58.7625,10.5804 176.201,20.4718 182.361,15.3594 3.34,-2.7717 14.222,-3.717 24.183,-2.1005 9.961,1.6164 25.195,0.4695 33.8535,-2.5491 23.474,-8.183 142.5,2.1064 162.4035,14.0393 19.825,11.8858 87.31,17.124 96.2215,7.4687 5.8695,-6.3592 56.289,-6.3443 109.2495,0.03 10.7415,1.2933 19.912,-1.7058 30,-9.8114 15.329,-12.3168 15.703,-11.6104 -10.471,-19.7873 -10.7405,-3.3556 -9.249,-11.4279 2.8195,-15.2583 7.736,-2.4553 14.6805,1.2154 27.7405,14.6631 9.582,9.866 22.3755,18.0192 28.431,18.1181 6.055,0.099 17.332,5.3537 25.0595,11.6774 l 14.0505,11.4975 -17.467,13.3226 c -9.6065,7.3276 -21.8455,13.3228 -27.1975,13.3228 -12.496,0 -50.9365,37.1237 -50.9365,49.1918 0,5.0617 5.625,11.7659 12.5,14.8984 6.875,3.1325 12.5,7.9936 12.5,10.8026 0,2.8089 8.023,5.1072 17.829,5.1072 9.8055,0 22.706,2.6103 28.6675,5.8008 5.9615,3.1905 23.236,8.253 38.388,11.25 25.0715,4.9591 27.7805,6.7939 30.123,20.4014 1.7225,10.0033 7.1975,17.168 16.5425,21.647 18.3265,8.7836 29.175,0.7759 25.287,-18.6648 -2.1775,-10.8869 -0.085,-15.4327 10.212,-22.1792 14.754,-9.6671 16.1115,-16.4758 5.6,-28.0909 -11.405,-12.6023 -4.5935,-44.4857 10.3025,-48.2244 17.6265,-4.424 69.1555,14.3276 71.377,25.9744 3.532,18.5171 27.1395,22.9066 48.3725,8.9942 14.5925,-9.5614 22.7755,-4.9002 32.4655,18.493 3.433,8.2885 12.675,18.3967 20.5375,22.4627 7.863,4.0659 14.296,9.5848 14.296,12.2642 0,2.6794 5.3495,4.8716 11.888,4.8716 10.566,0 27.6275,12.7264 22.5745,16.8387 -8.7565,7.1261 -59.4525,18.1613 -83.433,18.1613 -26.407,0 -32.19,1.9842 -53.741,18.4397 -23.746,18.1313 -23.5845,30.1117 0.195,14.5303 12.575,-8.2394 32.4635,-10.8153 32.5835,-4.22 0.05,2.0625 1.425,8.8125 3.0835,15 2.399,8.9516 0.949,11.25 -7.096,11.25 -14.7345,0 -49.9445,20.0596 -58.721,33.4545 -4.161,6.35 -10.91,11.5455 -14.9985,11.5455 -4.0885,0 -11.3495,4.7054 -16.135,10.4565 -4.7855,5.751 -14.007,12.5379 -20.492,15.0819 -10.152,3.9825 -11.355,6.9508 -8.653,21.3532 2.9245,15.5879 1.222,18.3647 -24.9785,40.7485 -30.306,25.8912 -29.499,22.9156 -19.275,71.1099 5.1575,24.3106 -6.326,20.523 -17.6135,-5.8094 -8.909,-20.7833 -11.0885,-22.4247 -37.679,-28.3754 -21.892,-4.8992 -31.8685,-4.998 -44.4715,-0.4405 -8.9365,3.2315 -24.823,5.8754 -35.3035,5.8754 -10.48,0 -26.321,4.4909 -35.2025,9.9798 -14.746,9.1137 -16.4365,12.8005 -19.4775,42.4825 -5.004,48.8453 12.3735,77.5377 46.9615,77.5377 15.7405,0 21.2735,-2.7682 29.9835,-15 6.855,-9.6266 15.037,-15 22.8405,-15 14.157,0 14.338,1.0355 4.8035,27.5 -11.226,31.1617 -10.4745,32.6967 14.3415,29.2953 19.3975,-2.6587 22.8705,-1.6174 29.5005,8.8456 8.3525,13.1815 6.0155,44.4564 -3.3035,44.2071 -3.1255,-0.083 -9.62,-2.4454 -14.4325,-5.2485 z m 312.1595,-417.0996 c 6.6815,-14.6641 10.2355,-15.2563 26.7235,-4.4531 16.176,10.599 11.3705,16.9531 -12.821,16.9531 -19.0895,0 -19.45,-0.324 -13.9025,-12.5 z m -153.4095,332.5001 c 1.6995,-2.75 5.2075,-5 7.795,-5 2.588,0 4.705,2.25 4.705,5 0,2.75 -3.5075,5 -7.795,5 -4.2875,0 -6.4045,-2.25 -4.705,-5 z" />
    </g>
  </g>
</svg>
